General

Format                           : MPEG-4
Format profile                   : Base Media
Codec ID                         : isom
File size                        : 63.6 MiB
Duration                         : 2mn 59s
Overall bit rate                 : 2 979 Kbps
Encoded date                     : UTC 2012-05-31 04:07:21
Tagged date                      : UTC 2012-05-31 04:07:21

Video
ID                               : 1
Format                           : AVC
Format/Info                      : Advanced Video Codec
Format profile                   : High@L3.0
Format settings, CABAC           : Yes
Format settings, ReFrames        : 2 frames
Codec ID                         : avc1
Codec ID/Info                    : Advanced Video Coding
Duration                         : 2mn 59s
Bit rate mode                    : Variable
Bit rate                         : 3 040 Kbps
Maximum bit rate                 : 5 950 Kbps
Width                            : 720 pixels
Height                           : 480 pixels
Display aspect ratio             : 16:9
Original display aspect ratio    : 16:9
Frame rate mode                  : Constant
Frame rate                       : 23.976 fps
Standard                         : NTSC
Color space                      : YUV
Chroma subsampling               : 4:2:0
Bit depth                        : 8 bits
Scan type                        : Progressive
Bits/(Pixel*Frame)               : 0.367
Stream size                      : 62.0 MiB (97%)


Audio
ID                               : 2
Format                           : AAC
Format/Info                      : Advanced Audio Codec
Format profile                   : LC
Codec ID                         : 40
Duration                         : 2mn 59s
Bit rate mode                    : Variable
Bit rate                         : 68.3 Kbps
Maximum bit rate                 : 78.5 Kbps
Channel(s)                       : 2 channels
Channel positions                : Front: L R
Sampling rate                    : 44.1 KHz
Compression mode                 : Lossy
Stream size                      : 1.46 MiB (2%)